# xmcd CD database file
#
# Track frame offsets:
#	150
#	44163
#	80033
#	104500
#	121032
#	143605
#	174447
#	216847
#	236719
#	252700
#	281153
#	300804
#	327320
#
# Disc length: 4665 seconds
#
# Revision: 0
# Processed by: cddbd v1.5.2PL0 Copyright (c) Steve Scherf et al.
# Submitted via: CDex 1.70beta2
#
DISCID=bf12370d
DTITLE=Various Artist - The Art Of Jazz - CD2
DYEAR=2016
DGENRE=Jazz
TTITLE0=Miles Davis - Freddie Freeloader
TTITLE1=John Coltrane - I'm Old Fashioned
TTITLE2=Dave Brubeck - Take Five
TTITLE3=Bill Evans - Lucky To Be Me
TTITLE4=Charles Mingus - Boogie Stop Shuffle
TTITLE5=Ornette Coleman - Focus On Sanity
TTITLE6=Miles Davis - Flamenco Sketches
TTITLE7=Dave Brubeck - Everybody's Jumping
TTITLE8=Bill Evans - Tenderly
TTITLE9=Charles Mingus - Bird Calls
TTITLE10=Ornette Coleman - Eventually
TTITLE11=Bill Evans - Young And Foolish
TTITLE12=Ornette Coleman - Lonely Woman
EXTD=YEAR: 2016
EXTT0=
EXTT1=
EXTT2=
EXTT3=
EXTT4=
EXTT5=
EXTT6=
EXTT7=
EXTT8=
EXTT9=
EXTT10=
EXTT11=
EXTT12=
PLAYORDER=
